<svg width="155" height="24" viewBox="0 0 155 24" fill="none" xmlns="http://www.w3.org/2000/svg">
<g clip-path="url(#clip0_10_220)">
<path fill-rule="evenodd" clip-rule="evenodd" d="M4.02663 12L1.33333 10.416L3.31846 6.91739L6.01333 8.4987L6.01487 5.33333H9.98513L9.98667 8.4987L12.6815 6.91739L14.6667 10.416L11.9733 12L14.6667 13.584L12.6815 17.0826L9.98667 15.5013L9.98513 18.6667H6.01487L6.01333 15.5013L3.31846 17.0826L1.33333 13.584L4.02663 12V12Z" fill="#0D141C"/>
</g>
<path d="M36.41 6.62V18.5H33.314V6.62H36.41ZM38.7933 18.5V9.5H41.5293L41.6193 11.246C41.9073 10.61 42.3093 10.13 42.8253 9.806C43.3533 9.482 43.9593 9.32 44.6433 9.32C45.3153 9.32 45.8973 9.47 46.3893 9.77C46.8813 10.07 47.2473 10.514 47.4873 11.102C47.6793 10.706 47.9253 10.376 48.2253 10.112C48.5373 9.848 48.8913 9.65 49.2873 9.518C49.6833 9.386 50.0913 9.32 50.5113 9.32C51.1113 9.32 51.6393 9.44 52.0953 9.68C52.5513 9.908 52.9113 10.262 53.1753 10.742C53.4513 11.21 53.5893 11.798 53.5893 12.506V18.5H50.5293V13.208C50.5293 12.632 50.4153 12.23 50.1873 12.002C49.9713 11.774 49.6773 11.66 49.3053 11.66C49.0053 11.66 48.7293 11.738 48.4773 11.894C48.2373 12.038 48.0513 12.26 47.9193 12.56C47.7873 12.86 47.7213 13.238 47.7213 13.694V18.5H44.6613V13.208C44.6613 12.632 44.5473 12.23 44.3193 12.002C44.0913 11.774 43.7973 11.66 43.4373 11.66C43.1613 11.66 42.8973 11.732 42.6453 11.876C42.4053 12.02 42.2133 12.248 42.0693 12.56C41.9253 12.86 41.8533 13.256 41.8533 13.748V18.5H38.7933ZM60.7606 12.794C60.7606 12.374 60.6406 12.044 60.4006 11.804C60.1726 11.552 59.8606 11.426 59.4646 11.426C59.0686 11.426 58.7266 11.528 58.4386 11.732C58.1626 11.924 57.9706 12.272 57.8626 12.776L55.2706 12.164C55.4386 11.3 55.8826 10.61 56.6026 10.094C57.3226 9.578 58.3366 9.32 59.6446 9.32C60.5206 9.32 61.2646 9.452 61.8766 9.716C62.5006 9.968 62.9746 10.352 63.2986 10.868C63.6346 11.372 63.8026 11.996 63.8026 12.74V16.034C63.8026 16.502 64.0126 16.736 64.4326 16.736C64.6486 16.736 64.8226 16.712 64.9546 16.664L64.7746 18.41C64.4146 18.578 63.9766 18.662 63.4606 18.662C62.9926 18.662 62.5786 18.59 62.2186 18.446C61.8586 18.29 61.5766 18.062 61.3726 17.762C61.1686 17.45 61.0666 17.06 61.0666 16.592V16.484L61.4086 16.358C61.4086 16.874 61.2526 17.306 60.9406 17.654C60.6406 18.002 60.2446 18.26 59.7526 18.428C59.2726 18.596 58.7686 18.68 58.2406 18.68C57.6286 18.68 57.0946 18.584 56.6386 18.392C56.1826 18.2 55.8286 17.924 55.5766 17.564C55.3366 17.192 55.2166 16.736 55.2166 16.196C55.2166 15.548 55.4086 15.014 55.7926 14.594C56.1886 14.162 56.8066 13.862 57.6466 13.694L61.0486 12.992L61.0306 14.612L59.3026 14.972C58.9426 15.044 58.6726 15.152 58.4926 15.296C58.3246 15.428 58.2406 15.632 58.2406 15.908C58.2406 16.172 58.3366 16.37 58.5286 16.502C58.7206 16.634 58.9486 16.7 59.2126 16.7C59.4166 16.7 59.6086 16.67 59.7886 16.61C59.9806 16.55 60.1486 16.46 60.2926 16.34C60.4366 16.208 60.5506 16.046 60.6346 15.854C60.7186 15.662 60.7606 15.434 60.7606 15.17V12.794ZM74.9799 7.088L75.2319 9.14C75.1599 9.116 75.0879 9.104 75.0159 9.104C74.9439 9.092 74.8719 9.086 74.7999 9.086C74.2719 9.086 73.8759 9.218 73.6119 9.482C73.3599 9.734 73.2339 10.052 73.2339 10.436L72.1539 10.04C72.1539 9.548 72.2439 9.074 72.4239 8.618C72.6039 8.162 72.8799 7.79 73.2519 7.502C73.6359 7.214 74.1159 7.07 74.6919 7.07C74.7279 7.07 74.7699 7.07 74.8179 7.07C74.8779 7.07 74.9319 7.076 74.9799 7.088ZM71.8839 16.502C72.9279 16.502 73.7259 16.724 74.2779 17.168C74.8419 17.6 75.1239 18.224 75.1239 19.04C75.1239 19.784 74.9199 20.402 74.5119 20.894C74.1039 21.386 73.5279 21.752 72.7839 21.992C72.0519 22.244 71.1819 22.37 70.1739 22.37C68.5419 22.37 67.3659 22.166 66.6459 21.758C65.9259 21.35 65.5659 20.798 65.5659 20.102C65.5659 19.598 65.7699 19.19 66.1779 18.878C66.5859 18.566 67.2639 18.398 68.2119 18.374L68.1399 18.662C67.4079 18.566 66.8619 18.35 66.5019 18.014C66.1419 17.678 65.9619 17.222 65.9619 16.646C65.9619 16.07 66.1899 15.602 66.6459 15.242C67.1019 14.882 67.7079 14.684 68.4639 14.648L69.5799 15.17H69.2919C68.8239 15.194 68.4939 15.272 68.3019 15.404C68.1099 15.536 68.0139 15.698 68.0139 15.89C68.0139 16.094 68.0979 16.25 68.2659 16.358C68.4339 16.454 68.6859 16.502 69.0219 16.502H71.8839ZM70.1919 20.39C70.7679 20.39 71.2419 20.348 71.6139 20.264C71.9979 20.192 72.2859 20.084 72.4779 19.94C72.6699 19.808 72.7659 19.652 72.7659 19.472C72.7659 19.292 72.6999 19.148 72.5679 19.04C72.4359 18.944 72.1959 18.896 71.8479 18.896H68.6259C68.3979 18.896 68.2119 18.956 68.0679 19.076C67.9359 19.196 67.8699 19.346 67.8699 19.526C67.8699 19.802 68.0739 20.012 68.4819 20.156C68.8899 20.312 69.4599 20.39 70.1919 20.39ZM70.2999 9.32C71.2119 9.32 71.9919 9.44 72.6399 9.68C73.2879 9.92 73.7799 10.268 74.1159 10.724C74.4639 11.168 74.6379 11.72 74.6379 12.38C74.6379 13.028 74.4639 13.58 74.1159 14.036C73.7799 14.492 73.2879 14.84 72.6399 15.08C71.9919 15.308 71.2119 15.422 70.2999 15.422C68.8719 15.422 67.7859 15.158 67.0419 14.63C66.3099 14.102 65.9439 13.352 65.9439 12.38C65.9439 11.72 66.1119 11.168 66.4479 10.724C66.7959 10.268 67.2939 9.92 67.9419 9.68C68.5899 9.44 69.3759 9.32 70.2999 9.32ZM70.2999 11.066C69.9039 11.066 69.5799 11.18 69.3279 11.408C69.0879 11.636 68.9679 11.96 68.9679 12.38C68.9679 12.788 69.0879 13.106 69.3279 13.334C69.5799 13.562 69.9039 13.676 70.2999 13.676C70.6839 13.676 71.0019 13.562 71.2539 13.334C71.5059 13.106 71.6319 12.788 71.6319 12.38C71.6319 11.96 71.5059 11.636 71.2539 11.408C71.0019 11.18 70.6839 11.066 70.2999 11.066ZM80.7322 18.68C79.7362 18.68 78.8722 18.494 78.1402 18.122C77.4202 17.75 76.8622 17.216 76.4662 16.52C76.0702 15.824 75.8722 14.984 75.8722 14C75.8722 13.016 76.0702 12.176 76.4662 11.48C76.8622 10.784 77.4142 10.25 78.1222 9.878C78.8422 9.506 79.6642 9.32 80.5882 9.32C81.5362 9.32 82.3402 9.506 83.0002 9.878C83.6722 10.238 84.1822 10.742 84.5302 11.39C84.8782 12.026 85.0522 12.758 85.0522 13.586C85.0522 13.802 85.0462 14.018 85.0342 14.234C85.0222 14.45 85.0042 14.63 84.9802 14.774H77.8522V13.136H83.6302L82.1722 13.694C82.1722 12.974 82.0402 12.422 81.7762 12.038C81.5242 11.654 81.1282 11.462 80.5882 11.462C80.2042 11.462 79.8742 11.552 79.5982 11.732C79.3342 11.912 79.1302 12.194 78.9862 12.578C78.8542 12.962 78.7882 13.454 78.7882 14.054C78.7882 14.642 78.8662 15.122 79.0222 15.494C79.1782 15.854 79.4002 16.118 79.6882 16.286C79.9762 16.442 80.3242 16.52 80.7322 16.52C81.1882 16.52 81.5482 16.43 81.8122 16.25C82.0882 16.07 82.2922 15.818 82.4242 15.494L84.8722 16.304C84.7042 16.82 84.4102 17.258 83.9902 17.618C83.5822 17.966 83.0902 18.23 82.5142 18.41C81.9502 18.59 81.3562 18.68 80.7322 18.68ZM97.0444 18.68C95.9884 18.68 95.0464 18.446 94.2184 17.978C93.4024 17.51 92.7664 16.82 92.3104 15.908C91.8544 14.996 91.6264 13.886 91.6264 12.578C91.6264 11.294 91.8664 10.196 92.3464 9.284C92.8264 8.372 93.5104 7.67 94.3984 7.178C95.2984 6.686 96.3544 6.44 97.5664 6.44C98.9104 6.44 99.9964 6.686 100.824 7.178C101.652 7.658 102.294 8.426 102.75 9.482L99.8884 10.616C99.7324 10.004 99.4564 9.56 99.0604 9.284C98.6644 9.008 98.1724 8.87 97.5844 8.87C96.9964 8.87 96.4924 9.014 96.0724 9.302C95.6524 9.578 95.3344 9.992 95.1184 10.544C94.9024 11.084 94.7944 11.756 94.7944 12.56C94.7944 13.4 94.9024 14.102 95.1184 14.666C95.3464 15.23 95.6764 15.65 96.1084 15.926C96.5524 16.19 97.0984 16.322 97.7464 16.322C98.0944 16.322 98.4124 16.28 98.7004 16.196C98.9884 16.112 99.2404 15.992 99.4564 15.836C99.6724 15.668 99.8404 15.464 99.9604 15.224C100.08 14.972 100.14 14.678 100.14 14.342V14.162H97.4224V12.092H102.768V18.5H100.662L100.428 15.71L100.932 16.142C100.68 16.958 100.224 17.588 99.5644 18.032C98.9164 18.464 98.0764 18.68 97.0444 18.68ZM109.944 12.794C109.944 12.374 109.824 12.044 109.584 11.804C109.356 11.552 109.044 11.426 108.648 11.426C108.252 11.426 107.91 11.528 107.622 11.732C107.346 11.924 107.154 12.272 107.046 12.776L104.454 12.164C104.622 11.3 105.066 10.61 105.786 10.094C106.506 9.578 107.52 9.32 108.828 9.32C109.704 9.32 110.448 9.452 111.06 9.716C111.684 9.968 112.158 10.352 112.482 10.868C112.818 11.372 112.986 11.996 112.986 12.74V16.034C112.986 16.502 113.196 16.736 113.616 16.736C113.832 16.736 114.006 16.712 114.138 16.664L113.958 18.41C113.598 18.578 113.16 18.662 112.644 18.662C112.176 18.662 111.762 18.59 111.402 18.446C111.042 18.29 110.76 18.062 110.556 17.762C110.352 17.45 110.25 17.06 110.25 16.592V16.484L110.592 16.358C110.592 16.874 110.436 17.306 110.124 17.654C109.824 18.002 109.428 18.26 108.936 18.428C108.456 18.596 107.952 18.68 107.424 18.68C106.812 18.68 106.278 18.584 105.822 18.392C105.366 18.2 105.012 17.924 104.76 17.564C104.52 17.192 104.4 16.736 104.4 16.196C104.4 15.548 104.592 15.014 104.976 14.594C105.372 14.162 105.99 13.862 106.83 13.694L110.232 12.992L110.214 14.612L108.486 14.972C108.126 15.044 107.856 15.152 107.676 15.296C107.508 15.428 107.424 15.632 107.424 15.908C107.424 16.172 107.52 16.37 107.712 16.502C107.904 16.634 108.132 16.7 108.396 16.7C108.6 16.7 108.792 16.67 108.972 16.61C109.164 16.55 109.332 16.46 109.476 16.34C109.62 16.208 109.734 16.046 109.818 15.854C109.902 15.662 109.944 15.434 109.944 15.17V12.794ZM118.37 5.684V15.44C118.37 15.836 118.436 16.118 118.568 16.286C118.7 16.454 118.922 16.538 119.234 16.538C119.414 16.538 119.564 16.526 119.684 16.502C119.804 16.478 119.948 16.442 120.116 16.394L119.918 18.23C119.702 18.362 119.42 18.47 119.072 18.554C118.724 18.638 118.382 18.68 118.046 18.68C117.086 18.68 116.39 18.458 115.958 18.014C115.526 17.57 115.31 16.844 115.31 15.836V5.684H118.37ZM124.259 5.684V15.44C124.259 15.836 124.325 16.118 124.457 16.286C124.589 16.454 124.811 16.538 125.123 16.538C125.303 16.538 125.453 16.526 125.573 16.502C125.693 16.478 125.837 16.442 126.005 16.394L125.807 18.23C125.591 18.362 125.309 18.47 124.961 18.554C124.613 18.638 124.271 18.68 123.935 18.68C122.975 18.68 122.279 18.458 121.847 18.014C121.415 17.57 121.199 16.844 121.199 15.836V5.684H124.259ZM131.515 18.68C130.519 18.68 129.655 18.494 128.923 18.122C128.203 17.75 127.645 17.216 127.249 16.52C126.853 15.824 126.655 14.984 126.655 14C126.655 13.016 126.853 12.176 127.249 11.48C127.645 10.784 128.197 10.25 128.905 9.878C129.625 9.506 130.447 9.32 131.371 9.32C132.319 9.32 133.123 9.506 133.783 9.878C134.455 10.238 134.965 10.742 135.313 11.39C135.661 12.026 135.835 12.758 135.835 13.586C135.835 13.802 135.829 14.018 135.817 14.234C135.805 14.45 135.787 14.63 135.763 14.774H128.635V13.136H134.413L132.955 13.694C132.955 12.974 132.823 12.422 132.559 12.038C132.307 11.654 131.911 11.462 131.371 11.462C130.987 11.462 130.657 11.552 130.381 11.732C130.117 11.912 129.913 12.194 129.769 12.578C129.637 12.962 129.571 13.454 129.571 14.054C129.571 14.642 129.649 15.122 129.805 15.494C129.961 15.854 130.183 16.118 130.471 16.286C130.759 16.442 131.107 16.52 131.515 16.52C131.971 16.52 132.331 16.43 132.595 16.25C132.871 16.07 133.075 15.818 133.207 15.494L135.655 16.304C135.487 16.82 135.193 17.258 134.773 17.618C134.365 17.966 133.873 18.23 133.297 18.41C132.733 18.59 132.139 18.68 131.515 18.68ZM137.547 18.5V9.5H140.247L140.373 11.444C140.601 10.772 140.937 10.25 141.381 9.878C141.837 9.506 142.413 9.32 143.109 9.32C143.337 9.32 143.529 9.338 143.685 9.374C143.853 9.41 143.985 9.458 144.081 9.518L143.775 12.038C143.655 11.99 143.499 11.954 143.307 11.93C143.127 11.894 142.905 11.876 142.641 11.876C142.281 11.876 141.945 11.954 141.633 12.11C141.321 12.266 141.069 12.5 140.877 12.812C140.697 13.112 140.607 13.496 140.607 13.964V18.5H137.547ZM154.336 9.5L151.06 18.5C150.724 19.448 150.358 20.204 149.962 20.768C149.566 21.332 149.098 21.74 148.558 21.992C148.018 22.244 147.37 22.37 146.614 22.37C146.11 22.37 145.648 22.316 145.228 22.208C144.808 22.1 144.442 21.95 144.13 21.758L144.742 19.688C144.958 19.844 145.186 19.952 145.426 20.012C145.666 20.084 145.972 20.12 146.344 20.12C146.692 20.12 146.974 20.06 147.19 19.94C147.418 19.82 147.598 19.592 147.73 19.256L147.964 18.698L146.92 16.25L144.22 9.5H147.586L148.972 14.63L149.404 16.538L149.908 14.558L151.294 9.5H154.336Z" fill="#0D141C"/>
<defs>
<clipPath id="clip0_10_220">
<rect width="16" height="16" fill="white" transform="translate(0 4)"/>
</clipPath>
</defs>
</svg>
